<?xml version="1.0" standalone="no"?>
<!DOCTYPE svg PUBLIC "-//W3C//DTD SVG 20010904//EN"
 "http://www.w3.org/TR/2001/REC-SVG-20010904/DTD/svg10.dtd">
<svg version="1.0" xmlns="http://www.w3.org/2000/svg"
 width="239.000000pt" height="45.000000pt" viewBox="0 0 239.000000 45.000000"
 preserveAspectRatio="xMidYMid meet">

<g transform="translate(0.000000,45.000000) scale(0.100000,-0.100000)"
fill="#000000" stroke="none">
<path d="M170 441 c-70 -22 -114 -59 -144 -117 -19 -40 -31 -107 -21 -131 5
-15 11 -9 31 30 22 42 28 47 58 47 30 0 34 -4 41 -32 l8 -33 7 42 c11 70 65
113 142 113 25 0 56 -8 76 -20 31 -19 62 -26 62 -15 0 17 -50 70 -85 91 -44
25 -134 39 -175 25z"/>
<path d="M1546 374 c-3 -11 -5 -23 -5 -28 0 -5 -5 -13 -13 -17 -9 -6 -3 -9 17
-9 l30 -1 -25 -21 c-16 -14 -21 -22 -12 -25 6 -3 12 -21 12 -41 l0 -37 70 0
70 0 0 38 c0 34 -2 37 -27 37 -16 0 -38 11 -51 24 -21 22 -21 25 -5 29 17 4
17 5 1 6 -22 1 -24 21 -3 21 8 0 15 5 15 10 0 6 -10 10 -23 10 -13 0 -28 5
-34 11 -8 8 -13 6 -17 -7z m24 -34 c0 -5 -4 -10 -10 -10 -5 0 -10 5 -10 10 0
6 5 10 10 10 6 0 10 -4 10 -10z m24 -46 c24 -9 19 -21 -9 -21 -25 0 -31 7 -18
20 8 8 8 8 27 1z m76 -44 c0 -5 -22 -10 -50 -10 -27 0 -50 5 -50 10 0 6 23 10
50 10 28 0 50 -4 50 -10z m0 -30 c0 -5 -22 -10 -50 -10 -27 0 -50 5 -50 10 0
6 23 10 50 10 28 0 50 -4 50 -10z"/>
<path d="M720 360 c0 -17 -7 -20 -41 -20 l-40 0 3 -47 3 -48 38 3 c35 3 37 2
37 -27 0 -17 5 -31 10 -31 6 0 10 14 10 31 0 31 1 32 40 26 l40 -5 0 49 0 49
-40 0 c-33 0 -40 3 -40 20 0 11 -4 20 -10 20 -5 0 -10 -9 -10 -20z m0 -60 c0
-25 -4 -30 -25 -30 -21 0 -25 5 -25 30 0 25 4 30 25 30 21 0 25 -5 25 -30z
m78 3 c-2 -22 -8 -28 -28 -28 -20 0 -26 6 -28 28 -3 24 0 27 28 27 28 0 31 -3
28 -27z"/>
<path d="M1167 370 c-3 -8 -8 -33 -11 -54 -4 -27 -17 -51 -42 -77 -19 -20 -32
-39 -26 -42 9 -7 62 45 80 77 9 18 11 17 25 -10 18 -35 64 -80 73 -71 4 4 -9
24 -28 45 -32 36 -49 72 -61 127 -3 15 -5 17 -10 5z"/>
<path d="M1767 362 c-27 -29 -20 -37 32 -37 44 0 48 2 40 18 -10 18 -29 23
-29 7 0 -5 -7 -10 -15 -10 -18 0 -19 12 -3 28 7 7 8 12 2 12 -6 0 -18 -8 -27
-18z"/>
<path d="M1860 343 l0 -43 40 0 c29 0 40 4 40 15 0 8 -4 15 -10 15 -5 0 -10
-4 -10 -10 0 -5 -11 -10 -25 -10 -34 0 -31 19 5 31 17 6 30 15 30 20 0 12 -7
11 -30 -1 -15 -8 -21 -6 -29 7 -8 14 -10 9 -11 -24z"/>
<path d="M1996 365 c4 -9 0 -15 -10 -15 -9 0 -16 -8 -16 -20 0 -11 5 -20 10
-20 6 0 10 5 10 10 0 15 147 13 153 -2 3 -7 6 -3 6 10 1 14 -5 22 -15 22 -14
0 -14 3 -4 15 17 21 1 19 -23 -2 -18 -17 -19 -17 -32 0 -15 21 -29 22 -21 2 3
-10 -1 -15 -13 -15 -10 0 -21 7 -25 15 -3 8 -10 15 -15 15 -6 0 -8 -7 -5 -15z"/>
<path d="M2250 355 c-13 -13 -31 -27 -42 -31 -10 -3 -18 -9 -18 -14 0 -8 178
-11 193 -3 7 4 -89 73 -102 73 -4 0 -18 -11 -31 -25z m60 -10 l23 -25 -48 0
-48 0 24 24 c13 13 24 24 25 25 0 1 11 -10 24 -24z"/>
<path d="M870 283 l0 -88 85 0 85 0 0 88 0 87 -85 0 -85 0 0 -87z m155 2 l0
-70 -72 -3 -73 -3 0 76 0 76 73 -3 72 -3 0 -70z"/>
<path d="M919 331 c35 -10 39 -31 5 -31 -15 0 -24 -3 -20 -7 4 -4 15 -8 24 -8
9 0 18 -8 20 -17 3 -14 -3 -18 -27 -18 -17 0 -31 -4 -31 -10 0 -6 27 -10 61
-10 54 0 60 2 54 18 -4 9 -7 25 -7 35 0 10 -7 17 -19 17 -30 0 -23 28 9 33 15
2 0 4 -33 5 -37 0 -51 -3 -36 -7z m59 -80 c-15 -5 -21 7 -13 26 7 17 8 17 15
-2 4 -11 3 -22 -2 -24z"/>
<path d="M1320 360 c0 -5 16 -10 35 -10 l35 0 0 -65 0 -65 -45 0 c-25 0 -45
-4 -45 -10 0 -6 40 -10 100 -10 60 0 100 4 100 10 0 6 -20 10 -45 10 l-45 0 0
65 0 65 35 0 c19 0 35 5 35 10 0 6 -33 10 -80 10 -47 0 -80 -4 -80 -10z"/>
<path d="M1639 363 c-8 -61 -5 -68 34 -71 l37 -3 0 40 c0 40 -1 41 -35 41 -19
0 -35 -3 -36 -7z m51 -33 c0 -13 -7 -20 -20 -20 -13 0 -20 7 -20 20 0 13 7 20
20 20 13 0 20 -7 20 -20z"/>
<path d="M438 302 c-31 -4 -34 -11 -43 -103 l-6 -67 35 -4 35 -4 6 82 c4 45 6
86 4 91 -2 4 -16 7 -31 5z"/>
<path d="M1761 248 c1 -35 4 -53 6 -40 3 15 11 22 29 22 25 0 33 -15 12 -23
-7 -2 -10 -8 -6 -12 4 -4 14 -5 23 -2 11 5 15 21 15 62 l0 55 -40 0 -40 0 1
-62z m59 42 c0 -5 -12 -10 -26 -10 -14 0 -23 4 -19 10 3 6 15 10 26 10 10 0
19 -4 19 -10z m0 -40 c0 -5 -9 -10 -19 -10 -11 0 -23 5 -26 10 -4 6 5 10 19
10 14 0 26 -4 26 -10z"/>
<path d="M2010 300 c0 -5 16 -10 36 -10 31 0 35 -2 24 -15 -8 -9 -30 -15 -56
-15 -24 0 -44 -4 -44 -10 0 -5 20 -10 45 -10 33 0 45 -4 45 -15 0 -8 -9 -15
-20 -15 -11 0 -20 -4 -20 -10 0 -5 11 -10 25 -10 18 0 26 7 31 25 5 21 12 25
45 25 21 0 39 5 39 10 0 6 -19 10 -42 10 l-43 1 28 15 c43 23 32 34 -33 34
-33 0 -60 -4 -60 -10z"/>
<path d="M242 278 c-20 -26 -63 -120 -57 -126 4 -4 12 1 19 11 18 24 73 23 81
-2 3 -12 18 -21 38 -24 18 -2 33 -4 34 -3 1 1 -2 18 -7 37 -5 19 -14 53 -20
77 -10 39 -13 42 -44 42 -19 0 -38 -6 -44 -12z m28 -60 c0 -11 -8 -18 -20 -18
-23 0 -24 1 -8 35 12 27 28 18 28 -17z"/>
<path d="M1861 248 l-1 -48 40 0 c35 0 40 3 40 23 -1 20 -2 20 -11 5 -11 -19
-44 -24 -54 -8 -3 5 8 16 25 25 16 8 30 20 30 26 0 6 -6 6 -19 -1 -28 -14 -39
-13 -44 8 -3 9 -5 -4 -6 -30z"/>
<path d="M2200 268 c0 -5 11 -8 25 -8 30 0 31 -7 4 -36 l-21 -22 76 -4 c81 -3
92 4 56 37 -18 16 -24 14 -22 -6 1 -8 -59 -21 -66 -14 -3 3 3 14 13 24 12 14
33 21 69 23 37 3 26 5 -42 8 -50 3 -92 2 -92 -2z"/>
<path d="M66 221 c-4 -7 -5 -15 -2 -18 9 -9 19 4 14 18 -4 11 -6 11 -12 0z"/>
<path d="M35 170 c-4 -6 -11 -8 -16 -5 -5 4 -5 -5 1 -20 46 -121 209 -178 322
-112 82 48 103 111 22 68 -21 -12 -50 -21 -64 -21 -31 0 -101 31 -119 53 -8
10 -28 17 -48 17 -21 0 -36 6 -39 15 -7 17 -49 20 -59 5z"/>
<path d="M692 105 c0 -16 2 -22 5 -12 2 9 2 23 0 30 -3 6 -5 -1 -5 -18z"/>
<path d="M1658 123 c-11 -3 -18 -13 -17 -26 1 -17 2 -18 6 -4 2 9 8 17 13 17
5 0 11 -8 13 -17 3 -11 5 -7 6 10 0 15 0 26 -1 26 -2 -1 -11 -3 -20 -6z"/>
<path d="M1872 105 c0 -16 2 -22 5 -12 2 9 2 23 0 30 -3 6 -5 -1 -5 -18z"/>
<path d="M1922 105 c0 -16 2 -22 5 -12 2 9 2 23 0 30 -3 6 -5 -1 -5 -18z"/>
<path d="M1991 114 c0 -11 3 -14 6 -6 3 7 2 16 -1 19 -3 4 -6 -2 -5 -13z"/>
<path d="M762 100 c0 -14 2 -19 5 -12 2 6 2 18 0 25 -3 6 -5 1 -5 -13z"/>
<path d="M1312 100 c0 -14 2 -19 5 -12 2 6 2 18 0 25 -3 6 -5 1 -5 -13z"/>
<path d="M1942 100 c0 -14 2 -19 5 -12 2 6 2 18 0 25 -3 6 -5 1 -5 -13z"/>
<path d="M1411 94 c0 -11 3 -14 6 -6 3 7 2 16 -1 19 -3 4 -6 -2 -5 -13z"/>
<path d="M1511 94 c0 -11 3 -14 6 -6 3 7 2 16 -1 19 -3 4 -6 -2 -5 -13z"/>
<path d="M1801 94 c0 -11 3 -14 6 -6 3 7 2 16 -1 19 -3 4 -6 -2 -5 -13z"/>
<path d="M1851 94 c0 -11 3 -14 6 -6 3 7 2 16 -1 19 -3 4 -6 -2 -5 -13z"/>
</g>
</svg>
